<svg width="600" height="400" style="overflow: visible;"><defs><clipPath id="c3-1435697560557-clip"><rect width="578" height="346"></rect></clipPath><clipPath id="c3-1435697560557-clip-xaxis"><rect x="-31" y="-20" width="640" height="70"></rect></clipPath><clipPath id="c3-1435697560557-clip-yaxis"><rect x="-29" y="-4" width="40" height="370"></rect></clipPath><clipPath id="c3-1435697560557-clip-grid"><rect width="578" height="346"></rect></clipPath><clipPath id="c3-1435697560557-clip-subchart"><rect width="578"></rect></clipPath></defs><g transform="translate(20.5,4.5)"><text class="c3-text c3-empty" text-anchor="middle" dominant-baseline="middle" x="289" y="173" style="opacity: 0;"></text><rect class="c3-zoom-rect" width="578" height="346" style="opacity: 0;"></rect><g clip-path="url(http://kmsurvival.com/curve#c3-1435697560557-clip)" class="c3-regions" style="visibility: visible;"><g class=" c3-region c3-region-0 entire-chart"><rect height="346" width="680" y="0" x="-51" style="fill-opacity: 0.1;"></rect></g></g><g clip-path="url(http://kmsurvival.com/curve#c3-1435697560557-clip-grid)" class="c3-grid" style="visibility: visible;"><g class="c3-xgrids"><line class="c3-xgrid" x1="6" x2="6" y1="0" y2="346" style="opacity: 1;"></line><line class="c3-xgrid" x1="63" x2="63" y1="0" y2="346" style="opacity: 1;"></line><line class="c3-xgrid" x1="119" x2="119" y1="0" y2="346" style="opacity: 1;"></line><line class="c3-xgrid" x1="176" x2="176" y1="0" y2="346" style="opacity: 1;"></line><line class="c3-xgrid" x1="233" x2="233" y1="0" y2="346" style="opacity: 1;"></line><line class="c3-xgrid" x1="289" x2="289" y1="0" y2="346" style="opacity: 1;"></line><line class="c3-xgrid" x1="346" x2="346" y1="0" y2="346" style="opacity: 1;"></line><line class="c3-xgrid" x1="403" x2="403" y1="0" y2="346" style="opacity: 1;"></line><line class="c3-xgrid" x1="459" x2="459" y1="0" y2="346" style="opacity: 1;"></line><line class="c3-xgrid" x1="516" x2="516" y1="0" y2="346" style="opacity: 1;"></line><line class="c3-xgrid" x1="573" x2="573" y1="0" y2="346" style="opacity: 1;"></line></g><g class="c3-ygrids"><line class="c3-ygrid" x1="0" x2="578" y1="346" y2="346"></line><line class="c3-ygrid" x1="0" x2="578" y1="312" y2="312"></line><line class="c3-ygrid" x1="0" x2="578" y1="277" y2="277"></line><line class="c3-ygrid" x1="0" x2="578" y1="243" y2="243"></line><line class="c3-ygrid" x1="0" x2="578" y1="208" y2="208"></line><line class="c3-ygrid" x1="0" x2="578" y1="174" y2="174"></line><line class="c3-ygrid" x1="0" x2="578" y1="139" y2="139"></line><line class="c3-ygrid" x1="0" x2="578" y1="105" y2="105"></line><line class="c3-ygrid" x1="0" x2="578" y1="70" y2="70"></line><line class="c3-ygrid" x1="0" x2="578" y1="36" y2="36"></line><line class="c3-ygrid" x1="0" x2="578" y1="1" y2="1"></line></g><g class="c3-xgrid-focus"><line class="c3-xgrid-focus" x1="-10" x2="-10" y1="0" y2="346" style="visibility: hidden;"></line></g></g><g clip-path="url(http://kmsurvival.com/curve#c3-1435697560557-clip)" class="c3-chart"><g class="c3-event-rects c3-event-rects-multiple" style="fill-opacity: 0;"><rect x="0" y="0" width="578" height="346" class=" c3-event-rect c3-event-rect"></rect></g><g class="c3-chart-bars"><g class="c3-chart-bar c3-target c3-target-Group-Uno" style="opacity: 1; pointer-events: none;"><g class=" c3-shapes c3-shapes-Group-Uno c3-bars c3-bars-Group-Uno" style="cursor: pointer;"></g></g><g class="c3-chart-bar c3-target c3-target-Group-Dos" style="opacity: 1; pointer-events: none;"><g class=" c3-shapes c3-shapes-Group-Dos c3-bars c3-bars-Group-Dos" style="cursor: pointer;"></g></g></g><g class="c3-chart-lines"><g class="c3-chart-line c3-target c3-target-Group-Uno" style="opacity: 1; pointer-events: none;"><g class=" c3-shapes c3-shapes-Group-Uno c3-lines c3-lines-Group-Uno"><path class=" c3-shape c3-shape c3-line c3-line-Group-Uno" d="M6,1H91V35.49999999999999H190V139H246.5V173.5H303.5V208H332V242.5H374.5V346H403" style="stroke: rgb(31, 119, 180); opacity: 1; shape-rendering: crispEdges;"></path></g><g class=" c3-shapes c3-shapes-Group-Uno c3-areas c3-areas-Group-Uno"><path class=" c3-shape c3-shape c3-area c3-area-Group-Uno" d="M 6 1" style="fill: rgb(31, 119, 180); opacity: 0.200000002980232;"></path></g><g class=" c3-selected-circles c3-selected-circles-Group-Uno"></g><g class=" c3-shapes c3-shapes-Group-Uno c3-circles c3-circles-Group-Uno" style="cursor: pointer;"><circle class=" c3-shape c3-shape-0 c3-circle c3-circle-0" r="0" style="fill: rgb(31, 119, 180); opacity: 1;" cy="1" cx="6"></circle><circle class=" c3-shape c3-shape-1 c3-circle c3-circle-1" r="0" style="fill: rgb(31, 119, 180); opacity: 1;" cy="35.49999999999999" cx="176"></circle><circle class=" c3-shape c3-shape-2 c3-circle c3-circle-2" r="0" style="fill: rgb(31, 119, 180); opacity: 1;" cy="139" cx="204"></circle><circle class=" c3-shape c3-shape-3 c3-circle c3-circle-3" r="0" style="fill: rgb(31, 119, 180); opacity: 1;" cy="173.5" cx="289"></circle><circle class=" c3-shape c3-shape-4 c3-circle c3-circle-4" r="0" style="fill: rgb(31, 119, 180); opacity: 1;" cy="208" cx="318"></circle><circle class=" c3-shape c3-shape-5 c3-circle c3-circle-5" r="0" style="fill: rgb(31, 119, 180); opacity: 1;" cy="242.5" cx="346"></circle><circle class=" c3-shape c3-shape-6 c3-circle c3-circle-6" r="0" style="fill: rgb(31, 119, 180); opacity: 1;" cy="346" cx="403"></circle></g></g><g class="c3-chart-line c3-target c3-target-Group-Dos" style="opacity: 1; pointer-events: none;"><g class=" c3-shapes c3-shapes-Group-Dos c3-lines c3-lines-Group-Dos"><path class=" c3-shape c3-shape c3-line c3-line-Group-Dos" d="M6,1H176V35.49999999999999H388.5V69.99999999999999H442.5V104.50000000000001H471V208H502V242.5H544.5V242.5H573" style="stroke: rgb(255, 127, 14); opacity: 1; shape-rendering: crispEdges;"></path></g><g class=" c3-shapes c3-shapes-Group-Dos c3-areas c3-areas-Group-Dos"><path class=" c3-shape c3-shape c3-area c3-area-Group-Dos" d="M 6 1" style="fill: rgb(255, 127, 14); opacity: 0.200000002980232;"></path></g><g class=" c3-selected-circles c3-selected-circles-Group-Dos"></g><g class=" c3-shapes c3-shapes-Group-Dos c3-circles c3-circles-Group-Dos" style="cursor: pointer;"><circle class=" c3-shape c3-shape-0 c3-circle c3-circle-0" r="0" style="fill: rgb(255, 127, 14); opacity: 1;" cy="1" cx="6"></circle><circle class=" c3-shape c3-shape-1 c3-circle c3-circle-1" r="0" style="fill: rgb(255, 127, 14); opacity: 1;" cy="35.49999999999999" cx="346"></circle><circle class=" c3-shape c3-shape-2 c3-circle c3-circle-2" r="0" style="fill: rgb(255, 127, 14); opacity: 1;" cy="69.99999999999999" cx="431"></circle><circle class=" c3-shape c3-shape-3 c3-circle c3-circle-3" r="0" style="fill: rgb(255, 127, 14); opacity: 1;" cy="104.50000000000001" cx="454"></circle><circle class=" c3-shape c3-shape-4 c3-circle c3-circle-4" r="0" style="fill: rgb(255, 127, 14); opacity: 1;" cy="208" cx="488"></circle><circle class=" c3-shape c3-shape-5 c3-circle c3-circle-5" r="0" style="fill: rgb(255, 127, 14); opacity: 1;" cy="242.5" cx="516"></circle><circle class=" c3-shape c3-shape-6 c3-circle c3-circle-6" r="0" style="fill: rgb(255, 127, 14); opacity: 1;" cy="242.5" cx="573"></circle></g></g></g><g class="c3-chart-arcs" transform="translate(289,168)"><text class="c3-chart-arcs-title" style="text-anchor: middle; opacity: 0;"></text></g><g class="c3-chart-texts"><g class="c3-chart-text c3-target c3-target-Group-Uno" style="opacity: 1; pointer-events: none;"><g class=" c3-texts c3-texts-Group-Uno"></g></g><g class="c3-chart-text c3-target c3-target-Group-Dos" style="opacity: 1; pointer-events: none;"><g class=" c3-texts c3-texts-Group-Dos"></g></g></g></g><g clip-path="url(http://kmsurvival.com/curve#c3-1435697560557-clip-grid)" class="c3-grid c3-grid-lines"><g class="c3-xgrid-lines"></g><g class="c3-ygrid-lines"></g></g><g class="c3-axis c3-axis-x" clip-path="url(http://kmsurvival.com/curve#c3-1435697560557-clip-xaxis)" transform="translate(0,346)" style="visibility: visible; opacity: 1;"><text class="c3-axis-x-label" transform="" dy="-0.5em" dx="-0.5em" x="578" style="text-anchor: end;"></text><g class="tick" transform="translate(6, 0)" style="opacity: 1;"><line y2="6" x1="0" x2="0"></line><text y="9" x="0" style="text-anchor: middle; display: block;"><tspan x="0" dy=".71em">0</tspan></text></g><g class="tick" transform="translate(63, 0)" style="opacity: 1;"><line y2="6" x1="0" x2="0"></line><text y="9" x="0" style="text-anchor: middle; display: block;"><tspan x="0" dy=".71em">10</tspan></text></g><g class="tick" transform="translate(119, 0)" style="opacity: 1;"><line y2="6" x1="0" x2="0"></line><text y="9" x="0" style="text-anchor: middle; display: block;"><tspan x="0" dy=".71em">20</tspan></text></g><g class="tick" transform="translate(176, 0)" style="opacity: 1;"><line y2="6" x1="0" x2="0"></line><text y="9" x="0" style="text-anchor: middle; display: block;"><tspan x="0" dy=".71em">30</tspan></text></g><g class="tick" transform="translate(233, 0)" style="opacity: 1;"><line y2="6" x1="0" x2="0"></line><text y="9" x="0" style="text-anchor: middle; display: block;"><tspan x="0" dy=".71em">40</tspan></text></g><g class="tick" transform="translate(289, 0)" style="opacity: 1;"><line y2="6" x1="0" x2="0"></line><text y="9" x="0" style="text-anchor: middle; display: block;"><tspan x="0" dy=".71em">50</tspan></text></g><g class="tick" transform="translate(346, 0)" style="opacity: 1;"><line y2="6" x1="0" x2="0"></line><text y="9" x="0" style="text-anchor: middle; display: block;"><tspan x="0" dy=".71em">60</tspan></text></g><g class="tick" transform="translate(403, 0)" style="opacity: 1;"><line y2="6" x1="0" x2="0"></line><text y="9" x="0" style="text-anchor: middle; display: block;"><tspan x="0" dy=".71em">70</tspan></text></g><g class="tick" transform="translate(459, 0)" style="opacity: 1;"><line y2="6" x1="0" x2="0"></line><text y="9" x="0" style="text-anchor: middle; display: block;"><tspan x="0" dy=".71em">80</tspan></text></g><g class="tick" transform="translate(516, 0)" style="opacity: 1;"><line y2="6" x1="0" x2="0"></line><text y="9" x="0" style="text-anchor: middle; display: block;"><tspan x="0" dy=".71em">90</tspan></text></g><g class="tick" transform="translate(573, 0)" style="opacity: 1;"><line y2="6" x1="0" x2="0"></line><text y="9" x="0" style="text-anchor: middle; display: block;"><tspan x="0" dy=".71em">100</tspan></text></g><g class="tick" transform="translate(629, 0)" style="opacity: 1;"><line y2="0" x1="0" x2="0"></line><text y="9" x="0" style="text-anchor: middle; display: block;"><tspan x="0" dy=".71em">110</tspan></text></g><path class="domain" d="M0,6V0H578V6"></path></g><g class="c3-axis c3-axis-y" clip-path="url(http://kmsurvival.com/curve#c3-1435697560557-clip-yaxis)" transform="translate(0,0)" style="visibility: visible; opacity: 1;"><text class="c3-axis-y-label" transform="rotate(-90)" dy="1.2em" dx="-0.5em" x="0" style="text-anchor: end;"></text><g class="tick" transform="translate(0,346)" style="opacity: 1;"><line x2="-6"></line><text x="-9" y="0" style="text-anchor: end;"><tspan x="-9" dy="3">0</tspan></text></g><g class="tick" transform="translate(0,312)" style="opacity: 1;"><line x2="-6"></line><text x="-9" y="0" style="text-anchor: end;"><tspan x="-9" dy="3">0.1</tspan></text></g><g class="tick" transform="translate(0,277)" style="opacity: 1;"><line x2="-6"></line><text x="-9" y="0" style="text-anchor: end;"><tspan x="-9" dy="3">0.2</tspan></text></g><g class="tick" transform="translate(0,243)" style="opacity: 1;"><line x2="-6"></line><text x="-9" y="0" style="text-anchor: end;"><tspan x="-9" dy="3">0.3</tspan></text></g><g class="tick" transform="translate(0,208)" style="opacity: 1;"><line x2="-6"></line><text x="-9" y="0" style="text-anchor: end;"><tspan x="-9" dy="3">0.4</tspan></text></g><g class="tick" transform="translate(0,174)" style="opacity: 1;"><line x2="-6"></line><text x="-9" y="0" style="text-anchor: end;"><tspan x="-9" dy="3">0.5</tspan></text></g><g class="tick" transform="translate(0,139)" style="opacity: 1;"><line x2="-6"></line><text x="-9" y="0" style="text-anchor: end;"><tspan x="-9" dy="3">0.6</tspan></text></g><g class="tick" transform="translate(0,105)" style="opacity: 1;"><line x2="-6"></line><text x="-9" y="0" style="text-anchor: end;"><tspan x="-9" dy="3">0.7</tspan></text></g><g class="tick" transform="translate(0,70)" style="opacity: 1;"><line x2="-6"></line><text x="-9" y="0" style="text-anchor: end;"><tspan x="-9" dy="3">0.8</tspan></text></g><g class="tick" transform="translate(0,36)" style="opacity: 1;"><line x2="-6"></line><text x="-9" y="0" style="text-anchor: end;"><tspan x="-9" dy="3">0.9</tspan></text></g><g class="tick" transform="translate(0,1)" style="opacity: 1;"><line x2="-6"></line><text x="-9" y="0" style="text-anchor: end;"><tspan x="-9" dy="3">1</tspan></text></g><path class="domain" d="M-6,1H0V346H-6"></path></g><g class="c3-axis c3-axis-y2" transform="translate(578,0)" style="visibility: hidden; opacity: 1;"><text class="c3-axis-y2-label" transform="rotate(-90)" dy="-0.5em" dx="-0.5em" x="0" style="text-anchor: end;"></text><g class="tick" transform="translate(0,346)" style="opacity: 1;"><line x2="6" y2="0"></line><text x="9" y="0" style="text-anchor: start;"><tspan x="9" dy="3">0</tspan></text></g><g class="tick" transform="translate(0,312)" style="opacity: 1;"><line x2="6" y2="0"></line><text x="9" y="0" style="text-anchor: start;"><tspan x="9" dy="3">0.1</tspan></text></g><g class="tick" transform="translate(0,277)" style="opacity: 1;"><line x2="6" y2="0"></line><text x="9" y="0" style="text-anchor: start;"><tspan x="9" dy="3">0.2</tspan></text></g><g class="tick" transform="translate(0,243)" style="opacity: 1;"><line x2="6" y2="0"></line><text x="9" y="0" style="text-anchor: start;"><tspan x="9" dy="3">0.3</tspan></text></g><g class="tick" transform="translate(0,208)" style="opacity: 1;"><line x2="6" y2="0"></line><text x="9" y="0" style="text-anchor: start;"><tspan x="9" dy="3">0.4</tspan></text></g><g class="tick" transform="translate(0,174)" style="opacity: 1;"><line x2="6" y2="0"></line><text x="9" y="0" style="text-anchor: start;"><tspan x="9" dy="3">0.5</tspan></text></g><g class="tick" transform="translate(0,139)" style="opacity: 1;"><line x2="6" y2="0"></line><text x="9" y="0" style="text-anchor: start;"><tspan x="9" dy="3">0.6</tspan></text></g><g class="tick" transform="translate(0,105)" style="opacity: 1;"><line x2="6" y2="0"></line><text x="9" y="0" style="text-anchor: start;"><tspan x="9" dy="3">0.7</tspan></text></g><g class="tick" transform="translate(0,70)" style="opacity: 1;"><line x2="6" y2="0"></line><text x="9" y="0" style="text-anchor: start;"><tspan x="9" dy="3">0.8</tspan></text></g><g class="tick" transform="translate(0,36)" style="opacity: 1;"><line x2="6" y2="0"></line><text x="9" y="0" style="text-anchor: start;"><tspan x="9" dy="3">0.9</tspan></text></g><g class="tick" transform="translate(0,1)" style="opacity: 1;"><line x2="6" y2="0"></line><text x="9" y="0" style="text-anchor: start;"><tspan x="9" dy="3">1</tspan></text></g><path class="domain" d="M6,1H0V346H6"></path></g></g><g transform="translate(20.5,400.5)" style="visibility: hidden;"><g clip-path="url(http://kmsurvival.com/curve#c3-1435697560557-clip-subchart)" class="c3-chart"><g class="c3-chart-bars"></g><g class="c3-chart-lines"></g></g><g clip-path="url(http://kmsurvival.com/curve#c3-1435697560557-clip)" class="c3-brush" style="pointer-events: all; -webkit-tap-highlight-color: rgba(0, 0, 0, 0);"><rect class="background" x="0" width="578" style="visibility: hidden; cursor: crosshair;"></rect><rect class="extent" x="0" width="0" style="cursor: move;"></rect><g class="resize e" transform="translate(0,0)" style="cursor: ew-resize; display: none;"><rect x="-3" width="6" height="6" style="visibility: hidden;"></rect></g><g class="resize w" transform="translate(0,0)" style="cursor: ew-resize; display: none;"><rect x="-3" width="6" height="6" style="visibility: hidden;"></rect></g></g><g class="c3-axis-x" transform="translate(0,0)" clip-path="url(http://kmsurvival.com/curve#c3-1435697560557-clip-xaxis)" style="opacity: 1;"><g class="tick" transform="translate(6, 0)" style="opacity: 1;"><line y2="6" x1="0" x2="0"></line><text y="9" x="0" style="text-anchor: middle; display: block;"><tspan x="0" dy=".71em">0</tspan></text></g><g class="tick" transform="translate(63, 0)" style="opacity: 1;"><line y2="6" x1="0" x2="0"></line><text y="9" x="0" style="text-anchor: middle; display: block;"><tspan x="0" dy=".71em">10</tspan></text></g><g class="tick" transform="translate(119, 0)" style="opacity: 1;"><line y2="6" x1="0" x2="0"></line><text y="9" x="0" style="text-anchor: middle; display: block;"><tspan x="0" dy=".71em">20</tspan></text></g><g class="tick" transform="translate(176, 0)" style="opacity: 1;"><line y2="6" x1="0" x2="0"></line><text y="9" x="0" style="text-anchor: middle; display: block;"><tspan x="0" dy=".71em">30</tspan></text></g><g class="tick" transform="translate(233, 0)" style="opacity: 1;"><line y2="6" x1="0" x2="0"></line><text y="9" x="0" style="text-anchor: middle; display: block;"><tspan x="0" dy=".71em">40</tspan></text></g><g class="tick" transform="translate(289, 0)" style="opacity: 1;"><line y2="6" x1="0" x2="0"></line><text y="9" x="0" style="text-anchor: middle; display: block;"><tspan x="0" dy=".71em">50</tspan></text></g><g class="tick" transform="translate(346, 0)" style="opacity: 1;"><line y2="6" x1="0" x2="0"></line><text y="9" x="0" style="text-anchor: middle; display: block;"><tspan x="0" dy=".71em">60</tspan></text></g><g class="tick" transform="translate(403, 0)" style="opacity: 1;"><line y2="6" x1="0" x2="0"></line><text y="9" x="0" style="text-anchor: middle; display: block;"><tspan x="0" dy=".71em">70</tspan></text></g><g class="tick" transform="translate(459, 0)" style="opacity: 1;"><line y2="6" x1="0" x2="0"></line><text y="9" x="0" style="text-anchor: middle; display: block;"><tspan x="0" dy=".71em">80</tspan></text></g><g class="tick" transform="translate(516, 0)" style="opacity: 1;"><line y2="6" x1="0" x2="0"></line><text y="9" x="0" style="text-anchor: middle; display: block;"><tspan x="0" dy=".71em">90</tspan></text></g><g class="tick" transform="translate(573, 0)" style="opacity: 1;"><line y2="6" x1="0" x2="0"></line><text y="9" x="0" style="text-anchor: middle; display: block;"><tspan x="0" dy=".71em">100</tspan></text></g><g class="tick" transform="translate(629, 0)" style="opacity: 1;"><line y2="0" x1="0" x2="0"></line><text y="9" x="0" style="text-anchor: middle; display: block;"><tspan x="0" dy=".71em">110</tspan></text></g><path class="domain" d="M0,6V0H578V6"></path></g></g><g transform="translate(0,380)"><g class=" c3-legend-item c3-legend-item-Group-Uno" style="visibility: visible; cursor: pointer;"><text x="234.5" y="9" style="pointer-events: none;">Group Uno</text><rect class="c3-legend-item-event" x="220.5" y="-5" width="85" height="18" style="fill-opacity: 0;"></rect><rect class="c3-legend-item-tile" x="220.5" y="0" width="10" height="10" style="pointer-events: none; fill: rgb(31, 119, 180);"></rect></g><g class=" c3-legend-item c3-legend-item-Group-Dos" style="visibility: visible; cursor: pointer;"><text x="319.5" y="9" style="pointer-events: none;">Group Dos</text><rect class="c3-legend-item-event" x="305.5" y="-5" width="74" height="18" style="fill-opacity: 0;"></rect><rect class="c3-legend-item-tile" x="305.5" y="0" width="10" height="10" style="pointer-events: none; fill: rgb(255, 127, 14);"></rect></g></g></svg>